<svg width="15" height="17" viewBox="0 0 15 17" fill="none" xmlns="http://www.w3.org/2000/svg">
<path d="M8.9093 15.3491C8.1775 16.2731 6.77576 16.2748 6.04198 15.3523L0.934398 8.93093C0.166363 7.96571 0.846159 6.53957 2.07931 6.52749L3.46699 6.51369L3.46823 1.84903C3.46828 1.60861 3.51571 1.37055 3.6078 1.14847C3.69989 0.92638 3.83483 0.724616 4.00493 0.554704C4.17502 0.384792 4.37693 0.250062 4.59912 0.158211C4.8213 0.0663617 5.05941 0.0191922 5.29983 0.0193987L9.65811 0.0233419C10.1431 0.0239048 10.608 0.216938 10.9507 0.560042C11.2934 0.903145 11.486 1.36826 11.486 1.85322L11.4865 6.5127L12.8419 6.51344C14.0805 6.51418 14.7714 7.94353 14.0031 8.91442L8.9093 15.3491ZM6.72424 14.81C6.81413 14.923 6.92839 15.0143 7.05849 15.0769C7.18859 15.1396 7.33116 15.1721 7.47557 15.1719C7.61997 15.1717 7.76247 15.1389 7.89242 15.076C8.02238 15.013 8.13643 14.9215 8.22606 14.8083L13.3198 8.37364C13.6361 7.9736 13.3519 7.38525 12.8417 7.38475L11.0505 7.38401C10.9933 7.38402 10.9366 7.37276 10.8837 7.35086C10.8308 7.32896 10.7828 7.29686 10.7423 7.25639C10.7019 7.21593 10.6698 7.16788 10.6479 7.11501C10.626 7.06214 10.6147 7.00546 10.6147 6.94824L10.615 1.85322C10.6149 1.59916 10.514 1.35553 10.3344 1.17584C10.1548 0.996147 9.91118 0.895102 9.65713 0.8949L5.29884 0.890957C5.17292 0.890862 5.04822 0.915579 4.93185 0.963693C4.81548 1.01181 4.70974 1.08238 4.62065 1.17137C4.53157 1.26037 4.46089 1.36604 4.41265 1.48236C4.36442 1.59867 4.33958 1.72335 4.33954 1.84928L4.33831 6.94528C4.33833 7.06009 4.29303 7.17028 4.21226 7.25188C4.13149 7.33348 4.02177 7.3799 3.90696 7.38106L2.08793 7.3988C1.58018 7.40373 1.30042 7.9911 1.61641 8.38843L6.72424 14.81Z" fill="#6F6F6F"/>
</svg>
